<?xml version="1.0" encoding="utf-8"?>
<!-- Generator: Adobe Illustrator 24.1.3, SVG Export Plug-In . SVG Version: 6.00 Build 0)  -->
<svg version="1.1" id="Layer_1" xmlns="http://www.w3.org/2000/svg" xmlns:xlink="http://www.w3.org/1999/xlink" x="0px" y="0px"
	 viewBox="0 0 315.9 93.3" style="enable-background:new 0 0 315.9 93.3;" xml:space="preserve">
<style type="text/css">
	.st0{fill-rule:evenodd;clip-rule:evenodd;fill:#FFFFFF;}
</style>
<g>
	<g>
		<path class="st0" d="M107,27.7c4.3-0.3,6.6,0.2,6.6,6.9v17.2c-0.3,3.4-3.5,3.3-6.6,3.3V27.7z M107,91.5V63.7
			c11.5,0.6,17.5-3.1,17.4-14.9V33.2c0.3-9.7-5-14.2-16.9-14.2H96.2v72.5H107z"/>
		<path class="st0" d="M135.8,19c0,0,5,23.2,5.9,30.9h0.2c0.3-5.7,5.7-30.9,5.7-30.9h10.1l-17.5,72.5h-10.3l6.4-27.1L124.7,19H135.8
			z"/>
		<path class="st0" d="M176,45.8V31c0-3.7-1.1-4.5-3.3-4.5c-2.2,0-3.4,0.8-3.4,4.5v49.1c0,3.7,1.1,4.5,3.4,4.5
			c2.1,0,3.3-0.8,3.3-4.5V64.4h10.8V81c0,9.5-7.4,12.2-14.2,12.2c-6.6,0-14.1-2.7-14.1-12.2V30.1c0-9.5,7.4-12.2,14.1-12.2
			c6.7,0,14.2,2.7,14.2,12.2v15.7H176z"/>
		<path class="st0" d="M203.1,62.4l2.7-30.1h0.7l2.2,30.1H203.1z M190,91.5h9.8l2.3-19.7h7.6l2,19.7h10.9L214.4,19h-16.2L190,91.5z"
			/>
		<polygon class="st0" points="227.4,91.5 227.4,19 251.4,19 251.4,28.5 238.2,28.5 238.2,91.5 		"/>
		<path class="st0" d="M266.3,27.7c4.3-0.3,6.6,0.2,6.6,6.9v17.2c-0.3,3.4-3.5,3.3-6.6,3.3V27.7z M266.3,91.5V63.7
			c11.5,0.6,17.5-3.1,17.4-14.9V33.2c0.3-9.7-5-14.2-16.9-14.2h-11.3v72.5H266.3z"/>
		<path class="st0" d="M298.5,30.7c0-3.7,1.1-4.5,3.4-4.5c2.1,0,3.3,0.8,3.3,4.5v49.1c0,3.7-1.1,4.5-3.3,4.5c-2.2,0-3.4-0.8-3.4-4.5
			V30.7z M287.7,80.7c0,9.5,7.4,12.2,14.1,12.2c6.7,0,14.2-2.8,14.2-12.2V29.8c0-9.5-7.4-12.2-14.2-12.2c-6.6,0-14.1,2.7-14.1,12.2
			V80.7z"/>
		<path class="st0" d="M29.8,91.7H35l0.1-9.7C32.5,85.7,31.2,89.3,29.8,91.7"/>
		<path class="st0" d="M35.1,30.2c-5.9,7.1-11.7,15.2-15.5,22.9h5.5c1.8-3.6,7.2-10.8,10-14V30.2z"/>
		<path class="st0" d="M35.1,45.6c-1,1.4-4.4,6.2-5.1,7.5l5,0C35.1,53,35.1,45.6,35.1,45.6"/>
		<path class="st0" d="M35.1,17.4H0v35.7h15.6c5.2-9.8,12.3-18.8,19.5-26.6V17.4z"/>
		<path class="st0" d="M5.5,91.7h3.1c2.7-10.5,8-24.4,14.4-35.2h-5.2C11.6,67.8,8,79.9,5.5,91.7"/>
		<path class="st0" d="M13,91.7h3.6c3.8-11.4,8.6-24,16.6-35.2h-5.3C20.7,67.9,16.4,80.5,13,91.7"/>
		<path class="st0" d="M0,91.7h0.5c1.3-8,6.7-23.8,13.2-35.2H0V91.7z"/>
		<path class="st0" d="M20.4,91.7h5.3c2.9-6.1,5.7-12.4,9.4-18.6V61.4C28.3,71.2,24,82.6,20.4,91.7"/>
		<path class="st0" d="M61.6,13.7l-1.3-0.5C57.8,15,55,17.3,55,17.3h-4.3c4.5-5.3,14.8-13,20.2-16.8L69.7,0
			C59.4,6.8,48.4,14.5,38.6,26.3v8.6C45.1,27.1,53.2,20.2,61.6,13.7"/>
		<path class="st0" d="M76.2,13.9l-1.5-0.4c-1.9,1-3.9,2.4-5.6,3.7h-4c1.5-1.8,8.5-6.3,8.5-6.3l-1.6-0.7
			c-13.5,8.8-24,18.5-33.5,30.6v7.8C49,34.9,59.9,24.4,76.2,13.9"/>
		<path class="st0" d="M49.2,13.6L47.7,13c0,0-3.5,2.7-5.3,4.4h-3.9V23C41,20.2,44.5,17.1,49.2,13.6"/>
		<path class="st0" d="M78,29.1l-1-1.3c-0.9,0.7-2.4,1.8-3.4,2.5v-6.1c1.4-1.1,4.6-3.5,7.1-5.2L79,18.2
			c-14.4,9.2-29.2,22.2-37.9,34.9h9C59,42.7,68.3,35.6,78,29.1"/>
		<path class="st0" d="M79.9,38.9c-1.9,1.1-4.5,3.3-6.2,4.5l-0.1-2.7c0,0,5.3-4,8.5-6l-0.7-1.2C73.3,38.7,65.2,45.5,57,53.1h8.5
			c5.2-4.8,9.4-9.1,14.7-12.8L79.9,38.9z"/>
		<path class="st0" d="M78.8,48l-1.2-1.2c-2.1,2-4.6,4.4-6.6,6.3h2.9C75,51.6,77.2,49.3,78.8,48"/>
		<path class="st0" d="M38.5,56.6l0,11.2c2.4-3.4,4.9-7.1,8.7-11.3L38.5,56.6z"/>
		<path class="st0" d="M38.6,76.2v15.3C44,80,52.7,66.2,62.5,56.5H54C48.4,62.3,42.2,70.7,38.6,76.2"/>
		<path class="st0" d="M67.9,56.5C57.8,67.9,49.3,79.3,44.1,91.7h29.5V56.5C73.7,56.4,67.9,56.5,67.9,56.5"/>
	</g>
</g>
</svg>
